<svg xmlns="http://www.w3.org/2000/svg" width="18.461" height="18" viewBox="0 0 18.461 18">
  <path id="Icon_awesome-github" data-name="Icon awesome-github" d="M6.175,15.056c0,.074-.086.134-.194.134s-.208-.048-.208-.134.086-.134.194-.134S6.175,14.97,6.175,15.056Zm-1.158-.167c-.026.074.048.16.16.182A.175.175,0,0,0,5.408,15c.022-.074-.048-.16-.16-.194A.191.191,0,0,0,5.017,14.889Zm1.645-.063c-.108.026-.182.1-.171.182s.108.123.22.1.182-.1.171-.171S6.77,14.814,6.662,14.825ZM9.112.563A8.925,8.925,0,0,0,0,9.644a9.331,9.331,0,0,0,6.309,8.9c.476.086.644-.208.644-.45s-.011-1.5-.011-2.285c0,0-2.605.558-3.153-1.109,0,0-.424-1.083-1.035-1.362,0,0-.852-.584.06-.573a1.965,1.965,0,0,1,1.437.96,1.968,1.968,0,0,0,2.713.778,2.069,2.069,0,0,1,.6-1.254c-2.081-.231-4.18-.532-4.18-4.113a2.821,2.821,0,0,1,.878-2.192,3.517,3.517,0,0,1,.1-2.527c.778-.242,2.568,1,2.568,1a8.793,8.793,0,0,1,4.675,0s1.79-1.251,2.568-1a3.515,3.515,0,0,1,.1,2.527,2.893,2.893,0,0,1,.96,2.192c0,3.592-2.192,3.878-4.273,4.113a2.2,2.2,0,0,1,.633,1.727c0,1.254-.011,2.806-.011,3.112,0,.242.171.536.644.45a9.246,9.246,0,0,0,6.246-8.9A9.126,9.126,0,0,0,9.112.563ZM3.618,13.4c-.048.037-.037.123.026.194s.145.086.194.037.037-.123-.026-.194S3.666,13.351,3.618,13.4Zm-.4-.3c-.026.048.011.108.086.145a.111.111,0,0,0,.16-.026c.026-.048-.011-.108-.086-.145S3.242,13.061,3.216,13.1Zm1.206,1.325c-.06.048-.037.16.048.231s.194.1.242.037.026-.16-.048-.231S4.47,14.364,4.422,14.423ZM4,13.876c-.06.037-.06.134,0,.22s.16.123.208.086a.17.17,0,0,0,0-.231C4.154,13.865,4.057,13.828,4,13.876Z" transform="translate(0 -0.563)" fill="#fff"/>
</svg>
